<?xml version="1.0" standalone="no"?>
<!DOCTYPE svg PUBLIC "-//W3C//DTD SVG 20010904//EN"
 "http://www.w3.org/TR/2001/REC-SVG-20010904/DTD/svg10.dtd">
<svg version="1.0" xmlns="http://www.w3.org/2000/svg"
 width="140.000000pt" height="120.000000pt" viewBox="0 0 140.000000 120.000000"
 preserveAspectRatio="xMidYMid meet">

<g transform="translate(0.000000,120.000000) scale(0.100000,-0.100000)"
fill="#000000" stroke="none">
<path d="M666 935 c-62 -17 -122 -60 -161 -115 -26 -37 -30 -50 -30 -111 0
-50 4 -73 17 -85 15 -16 16 -14 12 22 -6 44 18 92 60 119 24 16 29 16 88 -4
63 -20 87 -24 121 -22 20 1 22 27 6 81 -10 33 -9 39 15 65 14 15 26 33 26 40
0 27 -75 31 -154 10z m104 -25 c0 -6 -13 -16 -29 -23 l-29 -12 24 -40 c42 -70
26 -81 -66 -45 -60 24 -85 25 -122 6 -39 -20 -35 -7 10 36 37 36 85 64 132 79
37 11 80 10 80 -1z"/>
<path d="M877 852 c-10 -10 -17 -28 -17 -40 0 -27 33 -62 58 -62 26 0 55 34
55 66 0 49 -63 72 -96 36z m51 -25 c4 -22 -27 -35 -38 -16 -10 15 7 42 24 36
6 -2 12 -11 14 -20z"/>
<path d="M445 677 c-19 -93 22 -204 102 -277 30 -28 59 -50 64 -50 5 0 4 -11
-1 -26 -6 -14 -8 -30 -4 -35 9 -15 73 -10 107 8 18 9 57 20 88 24 30 3 72 14
92 24 91 43 177 156 177 232 0 32 -4 36 -67 65 -114 54 -204 43 -355 -45 -58
-33 -75 -38 -106 -33 -46 7 -68 36 -80 101 l-9 50 -8 -38z m553 -66 c23 -12
42 -25 42 -29 0 -32 -37 -105 -73 -141 -60 -62 -126 -91 -209 -91 -72 0 -92
10 -53 28 26 12 35 42 13 42 -7 0 -24 -9 -38 -20 -33 -26 -48 -25 -91 4 -60
41 -132 164 -80 136 38 -20 85 -11 155 30 37 22 87 47 110 55 58 21 168 15
224 -14z m-318 -285 c0 -2 -7 -6 -15 -10 -8 -3 -15 -1 -15 4 0 6 7 10 15 10 8
0 15 -2 15 -4z"/>
<path d="M792 598 c-18 -18 -14 -89 7 -128 24 -46 64 -75 85 -63 14 8 12 12
-14 31 -45 33 -63 76 -55 128 6 44 -1 54 -23 32z"/>
<path d="M894 599 c-3 -6 1 -18 10 -27 15 -15 17 -15 32 0 19 19 11 38 -16 38
-10 0 -22 -5 -26 -11z"/>
<path d="M920 700 c8 -5 24 -10 36 -10 11 0 42 -11 68 -24 26 -13 45 -19 43
-12 -5 19 -89 56 -127 56 -26 0 -31 -3 -20 -10z"/>
<path d="M1087 529 c-10 -31 -29 -71 -42 -89 -31 -42 -31 -44 0 -24 33 22 67
95 63 136 -4 31 -5 30 -21 -23z"/>
</g>
</svg>
